<?xml version="1.0" encoding="UTF-8"?>
<svg width="302px" height="44px" viewBox="0 0 302 44" version="1.1" xmlns="http://www.w3.org/2000/svg" xmlns:xlink="http://www.w3.org/1999/xlink">
    <!-- Generator: Sketch 48.2 (47327) - http://www.bohemiancoding.com/sketch -->
    <title>Group 2</title>
    <desc>Created with Sketch.</desc>
    <defs></defs>
    <g id="Page-1" stroke="none" stroke-width="1" fill="none" fill-rule="evenodd">
        <g id="Group-2">
            <g id="ts-logo" transform="translate(0.000000, 10.000000)" fill="#FFFFFF" fill-rule="nonzero">
                <path d="M8.39295302,6.67 L4.56644295,6.67 L4.56644295,18.7257143 C4.56644295,21.5221429 5.89832215,21.7914286 8.37181208,21.7085714 L8.37181208,22.8271429 C5.68691275,22.9928571 3.12885906,22.62 3.2557047,18.7257143 L3.2557047,6.67 L0,6.67 L0,5.55142857 L3.2557047,5.55142857 L3.2557047,0.0207142857 L4.56644295,0.0207142857 L4.56644295,5.55142857 L8.41409396,5.55142857 L8.41409396,6.67 L8.39295302,6.67 Z M11.0355705,0 L11.0355705,9.23857143 L11.0989933,9.23857143 C11.9869128,6.64928571 14.6718121,5.13714286 17.3989933,5.13714286 C23.6144295,5.13714286 23.6778523,10.005 23.6778523,12.1178571 L23.6778523,22.8064286 L22.3671141,22.8064286 L22.3671141,11.9107143 C22.3671141,10.1292857 22.1557047,6.27642857 17.3567114,6.27642857 C13.4033557,6.27642857 11.0144295,9.25928571 11.0144295,13.5057143 L11.0144295,22.8478571 L9.70369128,22.8478571 L9.70369128,0 L11.0355705,0 Z M26.4895973,9.38357143 L26.595302,9.38357143 C27.2718121,7.12571429 30.1681208,5.32357143 33.3392617,5.44785714 L33.3392617,6.73214286 C31.9651007,6.56642857 30.0412752,6.89785714 28.4768456,8.41 C27.1661074,9.715 26.616443,10.7921429 26.4895973,13.3814286 L26.4895973,22.8271429 L25.1788591,22.8271429 L25.1788591,5.55142857 L26.4895973,5.55142857 L26.4895973,9.38357143 Z M33.4661074,14.355 C33.4026846,18.415 35.6013423,22.1228571 39.9563758,22.1228571 C43.2755034,22.1228571 45.6432886,20.1757143 46.2563758,16.9857143 L47.5671141,16.9857143 C46.890604,21.025 44.1422819,23.2414286 39.9563758,23.2414286 C34.8191275,23.2414286 32.1130872,19.285 32.1765101,14.5 C32.1130872,9.75642857 34.65,5.15785714 39.9563758,5.15785714 C45.4741611,5.15785714 47.947651,9.425 47.7151007,14.355 L33.4661074,14.355 Z M46.4043624,13.2364286 C46.3409396,9.61142857 44.0154362,6.25571429 39.9563758,6.25571429 C36.045302,6.25571429 33.7409396,9.81857143 33.4661074,13.2364286 L46.4043624,13.2364286 Z M50.061745,14.355 C49.9983221,18.415 52.1969799,22.1228571 56.5520134,22.1228571 C59.8711409,22.1228571 62.2389262,20.1757143 62.8520134,16.9857143 L64.1627517,16.9857143 C63.4862416,21.025 60.7379195,23.2414286 56.5520134,23.2414286 C51.4147651,23.2414286 48.7087248,19.285 48.7721477,14.5 C48.7087248,9.75642857 51.2456376,5.15785714 56.5520134,5.15785714 C62.0697987,5.15785714 64.5432886,9.425 64.3107383,14.355 L50.061745,14.355 Z M62.9788591,13.2364286 C62.9154362,9.61142857 60.5687919,6.25571429 56.5308725,6.25571429 C52.6197987,6.25571429 50.3154362,9.81857143 50.040604,13.2364286 L62.9788591,13.2364286 Z M66.4671141,17.0685714 C66.6785235,20.2585714 69.1097315,22.1021429 72.3020134,22.1021429 C74.6063758,22.1021429 77.8832215,21.4392857 77.8832215,18.4357143 C77.8832215,15.515 74.8600671,15.08 71.8580537,14.4792857 C68.8137584,13.8785714 65.790604,13.1121429 65.790604,9.57 C65.790604,6.15214286 69.1942953,5.13714286 72.1751678,5.13714286 C75.9171141,5.13714286 78.6865772,6.71142857 78.6865772,10.6471429 L77.3758389,10.6471429 C77.333557,7.51928571 75.1137584,6.25571429 72.1540268,6.25571429 C69.7439597,6.25571429 67.0802013,7.12571429 67.0802013,9.59071429 C67.0802013,12.3457143 70.1033557,12.7807143 72.9362416,13.3814286 C76.4244966,14.0235714 79.1728188,14.8314286 79.1728188,18.4564286 C79.1728188,22.185 75.3674497,23.2207143 72.2808725,23.2207143 C68.264094,23.2207143 65.2620805,21.1078571 65.1563758,17.0685714 L66.4671141,17.0685714 Z M81.7520134,9.50785714 L81.8154362,9.50785714 C82.3651007,7.78857143 84.352349,5.13714286 88.2211409,5.13714286 C93.6332215,5.13714286 96.1489933,9.34214286 96.1489933,14.21 C96.1489933,19.4507143 93.6120805,23.2207143 88.2211409,23.2207143 C85.3036913,23.2207143 82.8302013,22.0192857 81.8154362,19.2228571 L81.7520134,19.2228571 L81.7520134,29 L80.4412752,29 L80.4412752,5.55142857 L81.7520134,5.55142857 L81.7520134,9.50785714 Z M94.859396,14.21 C94.859396,10.2742857 92.9778523,6.25571429 88.2422819,6.25571429 C83.5489933,6.25571429 81.7942953,10.1292857 81.7942953,14.21 C81.7942953,18.3114286 83.2741611,22.1021429 88.2422819,22.1021429 C92.8298658,22.1228571 94.859396,18.4771429 94.859396,14.21 Z M105.281879,5.15785714 C110.461409,5.15785714 113.378859,9.28 113.378859,14.1892857 C113.378859,19.0985714 110.461409,23.2207143 105.281879,23.2207143 C100.102349,23.2207143 97.1848993,19.0778571 97.1848993,14.1892857 C97.1848993,9.28 100.102349,5.15785714 105.281879,5.15785714 Z M105.281879,22.1228571 C109.700336,22.1228571 112.068121,18.3321429 112.068121,14.1892857 C112.068121,10.0671429 109.700336,6.25571429 105.281879,6.25571429 C100.863423,6.25571429 98.4956376,10.0464286 98.4956376,14.1892857 C98.4956376,18.3114286 100.863423,22.1228571 105.281879,22.1228571 Z M120.735906,6.67 L116.888255,6.67 L116.888255,18.7257143 C116.888255,21.5221429 118.220134,21.7914286 120.693624,21.7085714 L120.693624,22.8271429 C118.008725,22.9928571 115.450671,22.62 115.577517,18.7257143 L115.577517,6.67 L112.321812,6.67 L112.321812,5.55142857 L115.577517,5.55142857 L115.577517,0.0207142857 L116.888255,0.0207142857 L116.888255,5.55142857 L120.735906,5.55142857 L120.735906,6.67 Z M123.695638,22.8478571 L123.695638,20.5071429 L126,20.5071429 L126,22.8478571 L123.695638,22.8478571 Z" id="Shape"></path>
            </g>
            <g id="Group" transform="translate(199.000000, 0.000000)">
                <g id="USO-Logo-for-Light-Backgrounds" transform="translate(23.000000, 0.000000)">
                    <g id="Page-1">
                        <polygon id="Fill-1" fill="#BB133E" points="0 43.9841155 77.4234592 43.9841155 77.4234592 -5.68434189e-14 0 -5.68434189e-14"></polygon>
                        <polygon id="Fill-2" fill="#FFFFFF" points="2.4333996 41.1725632 74.9900596 41.1725632 74.9900596 2.77978339 2.4333996 2.77978339"></polygon>
                        <polygon id="Fill-3" fill="#002147" points="4.89860835 39.1552347 72.5407555 39.1552347 72.5407555 4.79711191 4.89860835 4.79711191"></polygon>
                        <g id="Group-24" transform="translate(7.316103, 8.244043)">
                            <path d="M71.6500994,34.3740072 L71.8091451,34.3740072 C71.9204771,34.3740072 72.0159046,34.3581227 72.0159046,34.2310469 C72.0159046,34.1198556 71.9045726,34.1039711 71.8250497,34.1039711 L71.666004,34.1039711 L71.666004,34.3740072 L71.6500994,34.3740072 Z M71.4751491,33.9610108 L71.8409543,33.9610108 C72.0795229,33.9610108 72.2067594,34.0404332 72.2067594,34.2469314 C72.2067594,34.4057762 72.111332,34.4851986 71.9522863,34.501083 L72.2067594,34.9299639 L72.0159046,34.9299639 L71.7614314,34.5169675 L71.6500994,34.5169675 L71.6500994,34.9299639 L71.4751491,34.9299639 L71.4751491,33.9610108 Z M72.445328,34.4534296 C72.445328,34.0563177 72.1590457,33.7703971 71.7932406,33.7703971 C71.4274354,33.7703971 71.1411531,34.0563177 71.1411531,34.4534296 C71.1411531,34.8505415 71.4274354,35.1364621 71.7932406,35.1364621 C72.1590457,35.1364621 72.445328,34.8505415 72.445328,34.4534296 Z M70.9502982,34.4534296 C70.9502982,33.9768953 71.332008,33.5956679 71.8091451,33.5956679 C72.2862823,33.5956679 72.667992,33.9768953 72.667992,34.4534296 C72.667992,34.9299639 72.2862823,35.3111913 71.8091451,35.3111913 C71.332008,35.3111913 70.9502982,34.9140794 70.9502982,34.4534296 Z" id="Fill-4" fill="#002147"></path>
                            <path d="M21.582505,0.254151625 L18.528827,0.254151625 L18.528827,22.3971119 C18.528827,23.7790614 17.8767396,24.4144404 16.5089463,24.4144404 L15.777336,24.4144404 C14.3936382,24.4144404 13.7574553,23.7631769 13.7574553,22.3971119 L13.7574553,0.254151625 L10.7037773,0.254151625 L10.7037773,22.2541516 C10.7037773,25.5740072 12.3419483,27.2259928 15.6819085,27.2259928 L16.6361829,27.2259928 C19.9602386,27.2259928 21.6143141,25.5898917 21.6143141,22.2541516 L21.6143141,0.254151625 L21.582505,0.254151625 Z" id="Fill-6" fill="#FFFFFF"></path>
                            <path d="M34.1471173,13.5018051 L30.4254473,10.833213 C29.5506958,10.1819495 29.0417495,9.6101083 29.0417495,8.27581227 L29.0417495,4.90830325 C29.0417495,3.52635379 29.693837,2.89097473 31.0616302,2.89097473 L31.6023857,2.89097473 C32.9860835,2.89097473 33.6222664,3.54223827 33.6222664,4.90830325 L33.6222664,9.83249097 L36.6282306,9.83249097 L36.6282306,5.03537906 C36.6282306,1.79494585 35.0218688,0.142960289 31.7296223,0.142960289 L30.9662028,0.142960289 C27.6421471,0.142960289 25.9880716,1.77906137 25.9880716,5.11480144 L25.9880716,8.3234657 C25.9880716,10.499639 26.5606362,11.8815884 28.5487078,13.2953069 L32.3021869,16.0115523 C33.1769384,16.6628159 33.638171,17.234657 33.638171,18.5689531 L33.638171,22.5718412 C33.638171,23.9537906 32.9860835,24.5891697 31.6182903,24.5891697 L31.0139165,24.5891697 C29.6302187,24.5891697 28.9940358,23.9379061 28.9940358,22.5718412 L28.9940358,16.8375451 L26.0039761,16.8375451 L26.0039761,22.4447653 C26.0039761,25.6851986 27.610338,27.3371841 30.9025845,27.3371841 L31.7455268,27.3371841 C35.0695825,27.3371841 36.7236581,25.701083 36.7236581,22.365343 L36.7236581,18.4736462 C36.7077535,16.1862816 36.0874751,14.9155235 34.1471173,13.5018051" id="Fill-8" fill="#FFFFFF"></path>
                            <path d="M52.1033797,22.365343 L52.1033797,5.11480144 C52.1033797,1.79494585 50.4652087,0.142960289 47.1252485,0.142960289 L45.9801193,0.142960289 C42.6560636,0.142960289 41.0019881,1.77906137 41.0019881,5.11480144 L41.0019881,22.3812274 C41.0019881,25.701083 42.640159,27.3530686 45.9801193,27.3530686 L47.1252485,27.3530686 C50.4652087,27.3371841 52.1033797,25.6851986 52.1033797,22.365343 M49.0497018,4.95595668 L49.0497018,22.5241877 C49.0497018,23.9061372 48.3976143,24.5415162 47.0298211,24.5415162 L46.1073559,24.5415162 C44.7236581,24.5415162 44.0874751,23.8902527 44.0874751,22.5241877 L44.0874751,4.95595668 C44.0874751,3.57400722 44.7395626,2.93862816 46.1073559,2.93862816 L47.0298211,2.93862816 C48.3976143,2.93862816 49.0497018,3.57400722 49.0497018,4.95595668" id="Fill-10" fill="#FFFFFF"></path>
                            <polygon id="Fill-12" fill="#FFFFFF" points="3.81709742 1.39783394 4.70775348 4.1299639 7.60238569 4.1299639 5.26441352 5.82960289 6.15506958 8.59350181 3.81709742 6.89386282 1.46322068 8.59350181 2.36978131 5.82960289 0.0318091451 4.1299639 2.92644135 4.1299639"></polygon>
                            <polygon id="Fill-14" fill="#FFFFFF" points="3.81709742 10.1501805 4.70775348 12.8823105 7.60238569 12.8823105 5.26441352 14.566065 6.15506958 17.3299639 3.81709742 15.6303249 1.46322068 17.3299639 2.36978131 14.566065 0.0318091451 12.866426 2.92644135 12.866426"></polygon>
                            <polygon id="Fill-16" fill="#FFFFFF" points="3.81709742 18.9025271 4.70775348 21.634657 7.60238569 21.634657 5.26441352 23.334296 6.15506958 26.0981949 3.81709742 24.398556 1.46322068 26.0981949 2.36978131 23.334296 0.0318091451 21.634657 2.92644135 21.634657"></polygon>
                            <polygon id="Fill-18" fill="#FFFFFF" points="58.9582505 1.39783394 59.8489066 4.1299639 62.7435388 4.1299639 60.4055666 5.82960289 61.2962227 8.59350181 58.9582505 6.89386282 56.6043738 8.59350181 57.5109344 5.82960289 55.1729622 4.1299639 58.0675944 4.1299639"></polygon>
                            <polygon id="Fill-20" fill="#FFFFFF" points="58.9582505 10.1501805 59.8489066 12.8823105 62.7435388 12.8823105 60.4055666 14.566065 61.2962227 17.3299639 58.9582505 15.6303249 56.6043738 17.3299639 57.5109344 14.566065 55.1729622 12.866426 58.0675944 12.866426"></polygon>
                            <polygon id="Fill-22" fill="#FFFFFF" points="58.9582505 18.9025271 59.8489066 21.634657 62.7435388 21.634657 60.4055666 23.334296 61.2962227 26.0981949 58.9582505 24.398556 56.6043738 26.0981949 57.5109344 23.334296 55.1729622 21.634657 58.0675944 21.634657"></polygon>
                        </g>
                    </g>
                </g>
                <rect id="Rectangle" x="0" y="12" width="126" height="23"></rect>
            </g>
            <polygon id="+" fill="#FFFFFF" points="167.12 4.688 168.48 4.688 168.48 21.212 184.936 21.212 184.936 22.572 168.48 22.572 168.48 39.096 167.12 39.096 167.12 22.572 150.664 22.572 150.664 21.212 167.12 21.212"></polygon>
        </g>
    </g>
</svg>