<?xml version="1.0" encoding="UTF-8"?>
<svg width="76px" height="76px" viewBox="0 0 76 76" version="1.1" xmlns="http://www.w3.org/2000/svg" xmlns:xlink="http://www.w3.org/1999/xlink">
    <!-- Generator: Sketch 48.2 (47327) - http://www.bohemiancoding.com/sketch -->
    <title>map</title>
    <desc>Created with Sketch.</desc>
    <defs></defs>
    <g id="Symbols" stroke="none" stroke-width="1" fill="none" fill-rule="evenodd">
        <g id="noun_1243248_cc" transform="translate(17.000000, 19.000000)" fill="#002147" fill-rule="nonzero">
            <g id="Group" transform="translate(0.241667, 0.000000)">
                <path d="M23.6833333,9.54924565 C23.6833333,7.60170213 22.1454545,6.03110251 20.2384848,6.03110251 C18.3315152,6.03110251 16.7936364,7.60170213 16.7936364,9.54924565 C16.7936364,11.4967892 18.3315152,13.0673888 20.2384848,13.0673888 C22.1454545,13.0673888 23.6833333,11.4967892 23.6833333,9.54924565 Z M20.2384848,11.8109091 C19.0081818,11.8109091 18.0239394,10.8057253 18.0239394,9.54924565 C18.0239394,8.29276596 19.0081818,7.28758221 20.2384848,7.28758221 C21.4687879,7.28758221 22.4530303,8.29276596 22.4530303,9.54924565 C22.4530303,10.8057253 21.4687879,11.8109091 20.2384848,11.8109091 Z" id="Shape"></path>
                <path d="M20.5460606,30.2811605 L21.0381818,29.7157447 C21.4072727,29.2131528 30.6960606,17.9048356 30.6960606,10.3659574 C30.6960606,4.64897485 26.1439394,0 20.5460606,0 C14.9481818,0 10.4575758,4.64897485 10.4575758,10.3659574 C10.4575758,17.9048356 19.7463636,29.2759768 20.1154545,29.7157447 L20.5460606,30.2811605 Z M20.5460606,1.25647969 C25.4672727,1.25647969 29.4657576,5.34003868 29.4657576,10.3659574 C29.4657576,16.5227079 22.4530303,25.8834816 20.5460606,28.333617 C18.6390909,25.8834816 11.6878788,16.5227079 11.6878788,10.3659574 C11.6878788,5.34003868 15.6863636,1.25647969 20.5460606,1.25647969 Z" id="Shape"></path>
                <polygon id="Shape" points="28.42 24.501354 28.42 25.7578337 33.4642424 25.7578337 38.4469697 37.0661509 2.1530303 37.0661509 7.13575758 25.7578337 12.3030303 25.7578337 12.3030303 24.501354 6.39757576 24.501354 0.307575758 38.3226306 40.2924242 38.3226306 34.2024242 24.501354"></polygon>
            </g>
        </g>
    </g>
</svg>