<?xml version="1.0" encoding="UTF-8"?>
<svg width="76px" height="76px" viewBox="0 0 76 76" version="1.1" xmlns="http://www.w3.org/2000/svg" xmlns:xlink="http://www.w3.org/1999/xlink">
    <!-- Generator: Sketch 48.2 (47327) - http://www.bohemiancoding.com/sketch -->
    <title>netw</title>
    <desc>Created with Sketch.</desc>
    <defs></defs>
    <g id="Symbols" stroke="none" stroke-width="1" fill="none" fill-rule="evenodd">
        <g id="network-copy" transform="translate(13.000000, 13.000000)" fill="#002147" fill-rule="nonzero">
            <g id="Group-3">
                <path d="M32.40625,31.4340625 L32.40625,19.5659375 C32.40625,19.2725362 32.1684013,19.0346875 31.875,19.0346875 L19.125,19.0346875 C18.8315987,19.0346875 18.59375,19.2725362 18.59375,19.5659375 L18.59375,31.4340625 C18.59375,31.7274638 18.8315987,31.9653125 19.125,31.9653125 L31.875,31.9653125 C32.1684013,31.9653125 32.40625,31.7274638 32.40625,31.4340625 Z M31.34375,30.9028125 L19.65625,30.9028125 L19.65625,20.0971875 L31.34375,20.0971875 L31.34375,30.9028125 Z" id="Shape"></path>
                <path d="M24.2621875,24.96875 L26.743125,24.96875 C27.0365263,24.96875 27.274375,24.7309013 27.274375,24.4375 C27.274375,24.1440987 27.0365263,23.90625 26.743125,23.90625 L24.2621875,23.90625 C23.9687862,23.90625 23.7309375,24.1440987 23.7309375,24.4375 C23.7309375,24.7309013 23.9687862,24.96875 24.2621875,24.96875 Z" id="Shape"></path>
                <path d="M25.6753125,15.5815625 C25.9687138,15.5815625 26.2065625,15.3437138 26.2065625,15.0503125 L26.2065625,11.0128125 C29.0662163,10.6435264 31.1332463,8.09566239 30.9050954,5.22130346 C30.6769445,2.34694453 28.2338587,0.157068852 25.351756,0.243531935 C22.4696532,0.329995017 20.1622354,2.66238581 20.1068013,5.54525229 C20.0513672,8.42811877 22.2674142,10.8474904 25.1440625,11.0446875 L25.1440625,15.045 C25.1426443,15.1868145 25.1979884,15.3233088 25.2977712,15.4240894 C25.3975541,15.5248701 25.5334909,15.5815696 25.6753125,15.5815625 Z M21.1596875,5.663125 C21.1596875,3.2660366 23.1029116,1.3228125 25.5,1.3228125 C27.8970884,1.3228125 29.8403125,3.2660366 29.8403125,5.663125 C29.8403125,8.0602134 27.8970884,10.0034375 25.5,10.0034375 C23.1061947,10.0005182 21.1655385,8.06223747 21.1596875,5.6684375 L21.1596875,5.663125 Z" id="Shape"></path>
                <path d="M25.3246875,35.4184375 C25.0312862,35.4184375 24.7934375,35.6562862 24.7934375,35.9496875 L24.7934375,39.9871875 C21.9337837,40.3564736 19.8667537,42.9043376 20.0949046,45.7786965 C20.3230555,48.6530555 22.7661413,50.8429311 25.648244,50.7564681 C28.5303468,50.670005 30.8377646,48.3376142 30.8931987,45.4547477 C30.9486328,42.5718812 28.7325858,40.1525096 25.8559375,39.9553125 L25.8559375,35.9496875 C25.8559375,35.6562862 25.6180888,35.4184375 25.3246875,35.4184375 Z M29.8403125,45.336875 C29.8403125,47.7339634 27.8970884,49.6771875 25.5,49.6771875 C23.1029116,49.6771875 21.1596875,47.7339634 21.1596875,45.336875 C21.1596875,42.9397866 23.1029116,40.9965625 25.5,40.9965625 C27.8938053,40.9994818 29.8344615,42.9377625 29.8403125,45.3315625 L29.8403125,45.336875 Z" id="Shape"></path>
                <path d="M50.734375,25.5 C50.7440584,22.5814195 48.4319601,20.183805 45.5149518,20.0875294 C42.5979436,19.9912537 40.1327831,22.2311951 39.95,25.1440625 L35.9496875,25.1440625 C35.6562862,25.1440625 35.4184375,25.3819112 35.4184375,25.6753125 C35.4184375,25.9687138 35.6562862,26.2065625 35.9496875,26.2065625 L39.9871875,26.2065625 C40.3642684,29.0209838 42.8575201,31.0619565 45.6909732,30.8756741 C48.5244262,30.6893918 50.7290095,28.3395648 50.734375,25.5 Z M45.3315625,29.8403125 C42.9344741,29.8403125 40.99125,27.8970884 40.99125,25.5 C40.99125,23.1029116 42.9344741,21.1596875 45.3315625,21.1596875 C47.7286509,21.1596875 49.671875,23.1029116 49.671875,25.5 C49.6689478,27.8958749 47.7274374,29.8373853 45.3315625,29.8403125 Z" id="Shape"></path>
                <path d="M11.05,25.8559375 L15.0503125,25.8559375 C15.3437138,25.8559375 15.5815625,25.6180888 15.5815625,25.3246875 C15.5815625,25.0312862 15.3437138,24.7934375 15.0503125,24.7934375 L11.0128125,24.7934375 C10.6435264,21.9337837 8.09566239,19.8667537 5.22130346,20.0949046 C2.34694453,20.3230555 0.157068852,22.7661413 0.243531935,25.648244 C0.329995017,28.5303468 2.66238581,30.8377646 5.54525229,30.8931987 C8.42811877,30.9486328 10.8474904,28.7325858 11.0446875,25.8559375 L11.05,25.8559375 Z M1.328125,25.5 C1.328125,23.1029116 3.2713491,21.1596875 5.6684375,21.1596875 C8.0655259,21.1596875 10.00875,23.1029116 10.00875,25.5 C10.00875,27.8970884 8.0655259,29.8403125 5.6684375,29.8403125 C3.27256261,29.8373853 1.33105216,27.8958749 1.328125,25.5 Z" id="Shape"></path>
                <path d="M38.366875,13.631875 C40.6533031,15.3885407 43.9158064,15.0425265 45.782898,12.8453472 C47.6499896,10.648168 47.4650007,7.3725867 45.362398,5.39959657 C43.2597954,3.42660644 39.9790789,3.45012162 37.9049745,5.45304913 C35.83087,7.45597663 35.6928544,10.7338731 37.59125,12.9040625 L34.7596875,15.735625 C34.5953539,15.8627711 34.5202273,16.0740514 34.5673985,16.2764039 C34.6145696,16.4787564 34.7753797,16.6350366 34.9789971,16.6764082 C35.1826145,16.7177798 35.3916626,16.6366485 35.5140625,16.46875 L38.366875,13.631875 Z M38.579375,6.279375 C39.8204518,5.03741188 41.6875407,4.6655052 43.3097847,5.3371215 C44.9320287,6.00873781 45.9898472,7.59156925 45.9898472,9.34734375 C45.9898472,11.1031183 44.9320287,12.6859497 43.3097847,13.357566 C41.6875407,14.0291823 39.8204518,13.6572756 38.579375,12.4153125 C37.7598309,11.6058454 37.2985592,10.5019069 37.2985592,9.35 C37.2985592,8.19809311 37.7598309,7.09415457 38.579375,6.2846875 L38.579375,6.279375 Z" id="Shape"></path>
                <path d="M16.235,34.53125 C16.0277926,34.3252718 15.6931449,34.3252718 15.4859375,34.53125 L12.633125,37.3840625 C10.3402292,35.6213687 7.06761948,35.9677341 5.19450855,38.1713485 C3.32139763,40.3749628 3.50671689,43.6606287 5.61573779,45.6396414 C7.7247587,47.6186542 11.0155604,47.5948278 13.0957044,45.5854843 C15.1758485,43.5761408 15.3135725,40.288136 13.40875,38.111875 L16.2403125,35.2803125 C16.4448284,35.0716472 16.442455,34.7369935 16.235,34.53125 Z M12.420625,44.7153125 C10.9569057,46.180521 8.66189398,46.4074446 6.93957292,45.257262 C5.21725185,44.1070793 4.54751289,41.9002665 5.34007166,39.9868505 C6.13263043,38.0734346 8.16665578,36.9865518 10.1978241,37.3911074 C12.2289924,37.795663 13.691358,39.5789353 13.6903125,41.65 C13.693254,42.8002971 13.2360849,43.9040067 12.420625,44.7153125 Z" id="Shape"></path>
                <path d="M37.8303125,45.4696875 C39.9065588,47.549392 43.2643085,47.5882243 45.3880965,45.557093 C47.5118844,43.5259617 47.6227752,40.1698189 45.6376947,38.002926 C43.6526142,35.8360331 40.2996246,35.6531349 38.090625,37.59125 L35.2590625,34.7596875 C35.0450488,34.6121961 34.7557423,34.6412087 34.5752776,34.8282597 C34.3948129,35.0153107 34.376185,35.305471 34.53125,35.5140625 L37.3840625,38.366875 C35.7316338,40.5143133 35.929462,43.5545018 37.84625,45.4696875 L37.8303125,45.4696875 Z M44.7365625,38.5634375 C46.201771,40.0271568 46.4286946,42.3221685 45.278512,44.0444896 C44.1283293,45.7668106 41.9215165,46.4365496 40.0081005,45.6439908 C38.0946846,44.8514321 37.0078018,42.8174067 37.4123574,40.7862384 C37.816913,38.7550701 39.6001853,37.2927045 41.67125,37.29375 C42.8164782,37.3006799 43.9118233,37.7632864 44.7153125,38.579375 L44.7365625,38.5634375 Z" id="Shape"></path>
                <path d="M16.46875,15.4859375 L13.6159375,12.633125 C15.376622,10.3423851 15.0303736,7.07314414 12.8289042,5.20203965 C10.6274349,3.33093516 7.34513059,3.51614434 5.36812537,5.62302581 C3.39112014,7.72990729 3.41484276,11.0173472 5.42204762,13.0954781 C7.42925247,15.173609 10.7138878,15.3114302 12.888125,13.40875 L15.7196875,16.2403125 C15.9280024,16.4471604 16.2645583,16.4459711 16.4714062,16.2376562 C16.6782541,16.0293413 16.6770649,15.6927854 16.46875,15.4859375 Z M6.2846875,12.420625 C4.81947903,10.9569057 4.59255537,8.66189398 5.74273803,6.93957292 C6.89292069,5.21725185 9.09973353,4.54751289 11.0131495,5.34007166 C12.9265654,6.13263043 14.0134482,8.16665578 13.6088926,10.1978241 C13.204337,12.2289924 11.4210647,13.691358 9.35,13.6903125 C8.2005174,13.689151 7.09831866,13.2326077 6.2846875,12.420625 Z" id="Shape"></path>
            </g>
        </g>
    </g>
</svg>