<?xml version="1.0" encoding="UTF-8"?>
<svg width="76px" height="76px" viewBox="0 0 76 76" version="1.1" xmlns="http://www.w3.org/2000/svg" xmlns:xlink="http://www.w3.org/1999/xlink">
    <!-- Generator: Sketch 48.2 (47327) - http://www.bohemiancoding.com/sketch -->
    <title>upl</title>
    <desc>Created with Sketch.</desc>
    <defs></defs>
    <g id="Symbols" stroke="none" stroke-width="1" fill="none" fill-rule="evenodd">
        <g id="Group-6" transform="translate(22.000000, 10.000000)">
            <path d="M21.7638461,32.28056 C22.549254,31.4975195 22.9913789,30.4256478 22.9913789,29.2815683 C22.9913789,28.1374887 22.5457028,27.0614739 21.7360283,26.2517994 C20.9287213,25.4450842 19.855074,25 18.7139537,25 C17.9397913,25 17.1632613,25.2172153 16.4997781,25.6161339 C15.8327436,25.2124804 15.0716022,25 14.2838268,25 C13.1427066,25 12.0690593,25.4444924 11.2605685,26.2517994 C9.59091075,27.9232327 9.59150262,30.6410875 11.2611603,32.3101534 L16.2091712,37.9636701 C16.2825628,38.0477152 16.3879151,38.0956565 16.4985943,38.0956565 C16.6092735,38.0956565 16.7152178,38.0477152 16.7880175,37.9636701 L21.7638461,32.28056 Z M21.786337,29.2815683 C21.786337,30.1042638 21.465545,30.8766507 20.8843312,31.4572725 L16.4997781,36.4638783 L12.1406752,31.486274 C12.1353484,31.4797635 12.1294297,31.4738448 12.123511,31.4679262 C10.9184692,30.2634761 10.9143261,28.305579 12.1134493,27.1046802 C12.6928874,26.5246502 13.4634987,26.2050419 14.2838268,26.2050419 C14.9573718,26.2050419 15.5977723,26.418706 16.1363715,26.824727 L16.2701335,26.9235688 C16.4068549,27.0259619 16.5950687,27.0259619 16.7311982,26.9217932 L16.8620009,26.8229514 C17.4000083,26.418706 18.0410006,26.2050419 18.7133619,26.2050419 C19.53369,26.2050419 20.3043013,26.5240584 20.8831475,27.1046802 C21.4661368,27.6864858 21.786337,28.4588727 21.786337,29.2815683 Z" id="Shape" stroke="#002147" stroke-width="0.2" fill="#002147" fill-rule="nonzero"></path>
            <g id="upload" stroke="#002048" stroke-linejoin="round" stroke-width="1.2">
                <polyline id="Rectangle-4" points="22.6149275 16 32 16 32 47 0 47 0 16 9.77451349 16"></polyline>
                <g id="Group-5" transform="translate(11.000000, 0.000000)">
                    <path d="M5.5,19.5280161 L5.5,1.6671447" id="Line-2"></path>
                    <polyline id="Path-2" points="0 7.36166328 5.49636619 0.673777145 11 7.37050639"></polyline>
                </g>
            </g>
        </g>
    </g>
</svg>